<svg width="22" height="20" viewBox="0 0 22 20" fill="none" xmlns="http://www.w3.org/2000/svg">
<path d="M4.35547 19.041C3.99805 19.041 3.76953 18.9297 3.66992 18.707C3.57031 18.4844 3.61719 18.2471 3.81055 17.9951C3.92773 17.8486 4.08887 17.6523 4.29395 17.4062C4.49902 17.166 4.71289 16.8994 4.93555 16.6064C5.1582 16.3135 5.35742 16.0264 5.5332 15.7451C5.57422 15.6689 5.58301 15.5986 5.55957 15.5342C5.53613 15.4697 5.48633 15.4141 5.41016 15.3672C4.44922 14.8516 3.62598 14.2363 2.94043 13.5215C2.25488 12.8008 1.73047 12.0127 1.36719 11.1572C1.00391 10.3018 0.822266 9.40234 0.822266 8.45898C0.822266 7.32812 1.08301 6.26758 1.60449 5.27734C2.13184 4.28125 2.8584 3.41113 3.78418 2.66699C4.71582 1.91699 5.79688 1.33105 7.02734 0.90918C8.26367 0.487305 9.58789 0.276367 11 0.276367C11.6445 0.276367 12.2715 0.323242 12.8809 0.416992C13.4961 0.510742 14.085 0.645508 14.6475 0.821289C14.4014 1.16699 14.208 1.54785 14.0674 1.96387C13.9326 2.37402 13.8652 2.80469 13.8652 3.25586C13.8652 4.04102 14.0586 4.75879 14.4453 5.40918C14.832 6.05957 15.3506 6.57812 16.001 6.96484C16.6514 7.35156 17.3691 7.54492 18.1543 7.54492C18.6699 7.54492 19.1592 7.45703 19.6221 7.28125C20.0908 7.09961 20.5127 6.85059 20.8877 6.53418C21.0811 7.17285 21.1777 7.81445 21.1777 8.45898C21.1777 9.40234 21.0049 10.29 20.6592 11.1221C20.3193 11.9482 19.8301 12.6982 19.1914 13.3721C18.5527 14.0459 17.7852 14.6289 16.8887 15.1211C15.998 15.6133 14.999 15.9912 13.8916 16.2549C12.79 16.5186 11.6035 16.6504 10.332 16.6504C10.291 16.6504 10.2412 16.6475 10.1826 16.6416C10.1299 16.6416 10.0771 16.6387 10.0244 16.6328C9.9541 16.6328 9.88379 16.6445 9.81348 16.668C9.74316 16.6914 9.66406 16.7324 9.57617 16.791C9.18359 17.0723 8.74121 17.3447 8.24902 17.6084C7.75684 17.8779 7.26465 18.1211 6.77246 18.3379C6.28027 18.5547 5.82031 18.7246 5.39258 18.8477C4.96484 18.9766 4.61914 19.041 4.35547 19.041ZM18.1543 6.30566C17.5918 6.30566 17.082 6.16797 16.625 5.89258C16.168 5.61719 15.8018 5.24805 15.5264 4.78516C15.251 4.32227 15.1133 3.81543 15.1133 3.26465C15.1133 2.70801 15.251 2.20117 15.5264 1.74414C15.8018 1.28125 16.168 0.912109 16.625 0.636719C17.082 0.361328 17.5918 0.223633 18.1543 0.223633C18.6992 0.223633 19.2002 0.361328 19.6572 0.636719C20.1201 0.912109 20.4893 1.28125 20.7646 1.74414C21.04 2.20117 21.1777 2.70801 21.1777 3.26465C21.1777 3.81543 21.04 4.32227 20.7646 4.78516C20.4893 5.24805 20.1201 5.61719 19.6572 5.89258C19.2002 6.16797 18.6992 6.30566 18.1543 6.30566Z" fill="url(#paint0_linear_2090_16)"/>
<defs>
<linearGradient id="paint0_linear_2090_16" x1="11" y1="-1" x2="11" y2="20" gradientUnits="userSpaceOnUse">
<stop stop-color="#ED6C24"/>
<stop offset="1" stop-color="#FF4F4F"/>
</linearGradient>
</defs>
</svg>
