<svg width="22" height="20" viewBox="0 0 22 20" fill="none" xmlns="http://www.w3.org/2000/svg">
<path d="M14.9814 19.1377C15.1455 18.8682 15.2686 18.5811 15.3506 18.2764C15.4385 17.9717 15.4824 17.6494 15.4824 17.3096V4.58301H19.9297C20.457 4.58301 20.8701 4.74707 21.1689 5.0752C21.4678 5.39746 21.6172 5.83984 21.6172 6.40234V17.3096C21.6172 17.8721 21.4678 18.3174 21.1689 18.6455C20.8701 18.9736 20.457 19.1377 19.9297 19.1377H14.9814ZM17.5215 9.10938C17.5215 9.31445 17.6211 9.41699 17.8203 9.41699H19.2617C19.4609 9.41699 19.5605 9.31445 19.5605 9.10938V7.71191C19.5605 7.50684 19.4609 7.4043 19.2617 7.4043H17.8203C17.6211 7.4043 17.5215 7.50684 17.5215 7.71191V9.10938ZM17.5215 12.5547C17.5215 12.7598 17.6211 12.8623 17.8203 12.8623H19.2617C19.4609 12.8623 19.5605 12.7598 19.5605 12.5547V11.1572C19.5605 10.958 19.4609 10.8584 19.2617 10.8584H17.8203C17.6211 10.8584 17.5215 10.958 17.5215 11.1572V12.5547ZM17.5215 16C17.5215 16.2051 17.6211 16.3076 17.8203 16.3076H19.2617C19.4609 16.3076 19.5605 16.2051 19.5605 16V14.6025C19.5605 14.3975 19.4609 14.2949 19.2617 14.2949H17.8203C17.6211 14.2949 17.5215 14.3975 17.5215 14.6025V16ZM0.374023 17.3096V2.0166C0.374023 1.44824 0.523438 1.00293 0.822266 0.680664C1.12109 0.352539 1.53418 0.188477 2.06152 0.188477H12.5029C13.0361 0.188477 13.4521 0.352539 13.751 0.680664C14.0498 1.00293 14.1992 1.44824 14.1992 2.0166V17.3096C14.1992 17.8721 14.0498 18.3174 13.751 18.6455C13.4521 18.9736 13.0361 19.1377 12.5029 19.1377H2.06152C1.53418 19.1377 1.12109 18.9736 0.822266 18.6455C0.523438 18.3174 0.374023 17.8721 0.374023 17.3096ZM4.1709 17.5732H10.4639V14.8047C10.4639 14.5996 10.3994 14.4355 10.2705 14.3125C10.1475 14.1895 9.97168 14.1279 9.74316 14.1279H4.85645C4.65137 14.1279 4.48438 14.1895 4.35547 14.3125C4.23242 14.4355 4.1709 14.5996 4.1709 14.8047V17.5732ZM3.93359 5.04004C3.93359 5.28613 4.05078 5.40918 4.28516 5.40918H6.06055C6.30664 5.40918 6.42969 5.28613 6.42969 5.04004V3.35254C6.42969 3.10645 6.30664 2.9834 6.06055 2.9834H4.28516C4.05078 2.9834 3.93359 3.10645 3.93359 3.35254V5.04004ZM8.20508 5.04004C8.20508 5.28613 8.3252 5.40918 8.56543 5.40918H10.332C10.5781 5.40918 10.7012 5.28613 10.7012 5.04004V3.35254C10.7012 3.10645 10.5781 2.9834 10.332 2.9834H8.56543C8.3252 2.9834 8.20508 3.10645 8.20508 3.35254V5.04004ZM3.93359 8.62598C3.93359 8.87793 4.05078 9.00391 4.28516 9.00391H6.06055C6.30664 9.00391 6.42969 8.87793 6.42969 8.62598V6.94727C6.42969 6.69531 6.30664 6.56934 6.06055 6.56934H4.28516C4.05078 6.56934 3.93359 6.69531 3.93359 6.94727V8.62598ZM8.20508 8.62598C8.20508 8.87793 8.3252 9.00391 8.56543 9.00391H10.332C10.5781 9.00391 10.7012 8.87793 10.7012 8.62598V6.94727C10.7012 6.69531 10.5781 6.56934 10.332 6.56934H8.56543C8.3252 6.56934 8.20508 6.69531 8.20508 6.94727V8.62598ZM3.93359 12.2207C3.93359 12.4668 4.05078 12.5898 4.28516 12.5898H6.06055C6.30664 12.5898 6.42969 12.4668 6.42969 12.2207V10.5332C6.42969 10.2812 6.30664 10.1553 6.06055 10.1553H4.28516C4.05078 10.1553 3.93359 10.2812 3.93359 10.5332V12.2207ZM8.20508 12.2207C8.20508 12.4668 8.3252 12.5898 8.56543 12.5898H10.332C10.5781 12.5898 10.7012 12.4668 10.7012 12.2207V10.5332C10.7012 10.2812 10.5781 10.1553 10.332 10.1553H8.56543C8.3252 10.1553 8.20508 10.2812 8.20508 10.5332V12.2207Z" fill="url(#paint0_linear_2090_941)"/>
<defs>
<linearGradient id="paint0_linear_2090_941" x1="11" y1="-1" x2="11" y2="20" gradientUnits="userSpaceOnUse">
<stop stop-color="#ED6C24"/>
<stop offset="1" stop-color="#FF4F4F"/>
</linearGradient>
</defs>
</svg>
