<svg width="22" height="16" viewBox="0 0 22 16" fill="none" xmlns="http://www.w3.org/2000/svg">
<path d="M4.26758 12.4707H6.4209C6.67871 12.4707 6.88672 12.3916 7.04492 12.2334C7.20312 12.0752 7.28223 11.873 7.28223 11.627V10.001C7.28223 9.74902 7.20312 9.54688 7.04492 9.39453C6.88672 9.23633 6.67871 9.15723 6.4209 9.15723H4.26758C4.00977 9.15723 3.80176 9.23633 3.64355 9.39453C3.48535 9.54688 3.40625 9.74902 3.40625 10.001V11.627C3.40625 11.873 3.48535 12.0752 3.64355 12.2334C3.80176 12.3916 4.00977 12.4707 4.26758 12.4707ZM0.602539 5.76465H21.3975V3.70801H0.602539V5.76465ZM3.48535 15.2656C2.53613 15.2656 1.81836 15.0254 1.33203 14.5449C0.845703 14.0645 0.602539 13.3555 0.602539 12.418V2.91699C0.602539 1.97363 0.845703 1.26172 1.33203 0.78125C1.81836 0.300781 2.53613 0.0605469 3.48535 0.0605469H18.5146C19.4639 0.0605469 20.1816 0.303711 20.668 0.790039C21.1543 1.27051 21.3975 1.97949 21.3975 2.91699V12.418C21.3975 13.3555 21.1543 14.0645 20.668 14.5449C20.1816 15.0254 19.4639 15.2656 18.5146 15.2656H3.48535Z" fill="url(#paint0_linear_2090_820)"/>
<defs>
<linearGradient id="paint0_linear_2090_820" x1="11" y1="-3" x2="11" y2="18" gradientUnits="userSpaceOnUse">
<stop stop-color="#ED6C24"/>
<stop offset="1" stop-color="#FF4F4F"/>
</linearGradient>
</defs>
</svg>
